<svg id="Capa_1" data-name="Capa 1" xmlns="http://www.w3.org/2000/svg" viewBox="0 0 32 32"><defs><style>.cls-1{fill:#fff;}.cls-2{fill:#cf733d;}.cls-3{fill:#041326;}</style></defs><title>favicon</title><circle class="cls-1" cx="15.99" cy="15.83" r="8.11"/><polygon class="cls-2" points="21.53 9.95 21.53 15.49 21.52 15.49 15.99 21.02 15.99 21.01 10.47 15.48 10.45 15.48 10.45 9.94 15.98 15.46 15.99 15.46 15.99 15.47 16.01 15.47 21.53 9.95"/><path class="cls-2" d="M16,.66A15.34,15.34,0,1,0,31.33,16,15.34,15.34,0,0,0,16,.66ZM16,24a8.11,8.11,0,1,1,8.11-8.1A8.1,8.1,0,0,1,16,24Z"/><polygon class="cls-1" points="24.11 15.84 27.71 12.24 27.73 12.22 27.73 12.22 27.73 12.22 27.73 12.22 27.73 12.22 27.73 12.22 27.73 12.22 27.73 12.22 27.75 12.24 31.35 15.84 24.11 15.84"/><path class="cls-3" d="M17,20l-1,1h0l-1-1a4.48,4.48,0,0,1,1-.12A4.9,4.9,0,0,1,17,20Z"/></svg>